<?xml version="1.0" encoding="us-ascii" standalone="no"?><svg xmlns="http://www.w3.org/2000/svg" xmlns:xlink="http://www.w3.org/1999/xlink" contentStyleType="text/css" height="1078px" preserveAspectRatio="none" style="width:928px;height:1078px;background:#FFFFFF;" version="1.1" viewBox="0 0 928 1078" width="928px" zoomAndPan="magnify"><defs/><g><!--class User--><g id="elem_User"><rect codeLine="3" fill="#F1F1F1" height="162.0781" id="User" rx="2.5" ry="2.5" style="stroke:#181818;stroke-width:0.5;" width="397" x="524" y="180.9"/><ellipse cx="702.25" cy="196.9" fill="#ADD1B2" rx="11" ry="11" style="stroke:#181818;stroke-width:1.0;"/><path d="M705.2188,202.5406 Q704.6406,202.8375 704,202.9781 Q703.3594,203.1344 702.6563,203.1344 Q700.1563,203.1344 698.8281,201.4938 Q697.5156,199.8375 697.5156,196.7125 Q697.5156,193.5875 698.8281,191.9313 Q700.1563,190.275 702.6563,190.275 Q703.3594,190.275 704,190.4313 Q704.6563,190.5875 705.2188,190.8844 L705.2188,193.6031 Q704.5938,193.025 704,192.7594 Q703.4063,192.4781 702.7813,192.4781 Q701.4375,192.4781 700.75,193.5563 Q700.0625,194.6188 700.0625,196.7125 Q700.0625,198.8063 700.75,199.8844 Q701.4375,200.9469 702.7813,200.9469 Q703.4063,200.9469 704,200.6813 Q704.5938,200.4 705.2188,199.8219 L705.2188,202.5406 Z " fill="#000000"/><text fill="#000000" font-family="sans-serif" font-size="14" lengthAdjust="spacing" textLength="32" x="722.75" y="201.7467">User</text><line style="stroke:#181818;stroke-width:0.5;" x1="525" x2="920" y1="212.9" y2="212.9"/><rect fill="none" height="6" style="stroke:#C82930;stroke-width:1.0;" width="6" x="532" y="223.5484"/><text fill="#000000" font-family="sans-serif" font-size="14" lengthAdjust="spacing" textLength="94" x="544" y="229.8951">_name: string</text><rect fill="none" height="6" style="stroke:#C82930;stroke-width:1.0;" width="6" x="532" y="239.8453"/><text fill="#000000" font-family="sans-serif" font-size="14" lengthAdjust="spacing" textLength="119" x="544" y="246.192">_lastName: string</text><rect fill="none" height="6" style="stroke:#C82930;stroke-width:1.0;" width="6" x="532" y="256.1422"/><text fill="#000000" font-family="sans-serif" font-size="14" lengthAdjust="spacing" textLength="122" x="544" y="262.4889">_password: string</text><line style="stroke:#181818;stroke-width:0.5;" x1="525" x2="920" y1="269.7906" y2="269.7906"/><ellipse cx="535" cy="283.4391" fill="#84BE84" rx="3" ry="3" style="stroke:#038048;stroke-width:1.0;"/><text fill="#000000" font-family="sans-serif" font-size="14" lengthAdjust="spacing" textLength="371" x="544" y="286.7857">User(name: string, lastname: string, password: string)</text><ellipse cx="535" cy="299.7359" fill="#84BE84" rx="3" ry="3" style="stroke:#038048;stroke-width:1.0;"/><text fill="#000000" font-family="sans-serif" font-size="14" lengthAdjust="spacing" textLength="121" x="544" y="303.0826">getName(): string</text><ellipse cx="535" cy="316.0328" fill="#84BE84" rx="3" ry="3" style="stroke:#038048;stroke-width:1.0;"/><text fill="#000000" font-family="sans-serif" font-size="14" lengthAdjust="spacing" textLength="149" x="544" y="319.3795">getLastName(): string</text><ellipse cx="535" cy="332.3297" fill="#84BE84" rx="3" ry="3" style="stroke:#038048;stroke-width:1.0;"/><text fill="#000000" font-family="sans-serif" font-size="14" font-style="italic" lengthAdjust="spacing" textLength="115" x="544" y="335.6764">getType(): string</text></g><!--class Salesperson--><g id="elem_Salesperson"><rect codeLine="14" fill="#F1F1F1" height="80.5938" id="Salesperson" rx="2.5" ry="2.5" style="stroke:#181818;stroke-width:0.5;" width="223" x="451" y="428.12"/><ellipse cx="515.25" cy="444.12" fill="#ADD1B2" rx="11" ry="11" style="stroke:#181818;stroke-width:1.0;"/><path d="M518.2188,449.7606 Q517.6406,450.0575 517,450.1981 Q516.3594,450.3544 515.6563,450.3544 Q513.1563,450.3544 511.8281,448.7138 Q510.5156,447.0575 510.5156,443.9325 Q510.5156,440.8075 511.8281,439.1513 Q513.1563,437.495 515.6563,437.495 Q516.3594,437.495 517,437.6513 Q517.6563,437.8075 518.2188,438.1044 L518.2188,440.8231 Q517.5938,440.245 517,439.9794 Q516.4063,439.6981 515.7813,439.6981 Q514.4375,439.6981 513.75,440.7763 Q513.0625,441.8388 513.0625,443.9325 Q513.0625,446.0263 513.75,447.1044 Q514.4375,448.1669 515.7813,448.1669 Q516.4063,448.1669 517,447.9013 Q517.5938,447.62 518.2188,447.0419 L518.2188,449.7606 Z " fill="#000000"/><text fill="#000000" font-family="sans-serif" font-size="14" lengthAdjust="spacing" textLength="86" x="535.75" y="448.9667">Salesperson</text><line style="stroke:#181818;stroke-width:0.5;" x1="452" x2="673" y1="460.12" y2="460.12"/><rect fill="none" height="6" style="stroke:#C82930;stroke-width:1.0;" width="6" x="459" y="470.7684"/><text fill="#000000" font-family="sans-serif" font-size="14" lengthAdjust="spacing" textLength="197" x="471" y="477.1151">_type: string = 'Salesperson'</text><line style="stroke:#181818;stroke-width:0.5;" x1="452" x2="673" y1="484.4169" y2="484.4169"/><ellipse cx="462" cy="498.0653" fill="#84BE84" rx="3" ry="3" style="stroke:#038048;stroke-width:1.0;"/><text fill="#000000" font-family="sans-serif" font-size="14" lengthAdjust="spacing" textLength="115" x="471" y="501.412">getType(): string</text></g><!--class Manager--><g id="elem_Manager"><rect codeLine="20" fill="#F1F1F1" height="80.5938" id="Manager" rx="2.5" ry="2.5" style="stroke:#181818;stroke-width:0.5;" width="197" x="709" y="428.12"/><ellipse cx="773.25" cy="444.12" fill="#ADD1B2" rx="11" ry="11" style="stroke:#181818;stroke-width:1.0;"/><path d="M776.2188,449.7606 Q775.6406,450.0575 775,450.1981 Q774.3594,450.3544 773.6563,450.3544 Q771.1563,450.3544 769.8281,448.7138 Q768.5156,447.0575 768.5156,443.9325 Q768.5156,440.8075 769.8281,439.1513 Q771.1563,437.495 773.6563,437.495 Q774.3594,437.495 775,437.6513 Q775.6563,437.8075 776.2188,438.1044 L776.2188,440.8231 Q775.5938,440.245 775,439.9794 Q774.4063,439.6981 773.7813,439.6981 Q772.4375,439.6981 771.75,440.7763 Q771.0625,441.8388 771.0625,443.9325 Q771.0625,446.0263 771.75,447.1044 Q772.4375,448.1669 773.7813,448.1669 Q774.4063,448.1669 775,447.9013 Q775.5938,447.62 776.2188,447.0419 L776.2188,449.7606 Z " fill="#000000"/><text fill="#000000" font-family="sans-serif" font-size="14" lengthAdjust="spacing" textLength="60" x="793.75" y="448.9667">Manager</text><line style="stroke:#181818;stroke-width:0.5;" x1="710" x2="905" y1="460.12" y2="460.12"/><rect fill="none" height="6" style="stroke:#C82930;stroke-width:1.0;" width="6" x="717" y="470.7684"/><text fill="#000000" font-family="sans-serif" font-size="14" lengthAdjust="spacing" textLength="171" x="729" y="477.1151">_type: string = 'Manager'</text><line style="stroke:#181818;stroke-width:0.5;" x1="710" x2="905" y1="484.4169" y2="484.4169"/><ellipse cx="720" cy="498.0653" fill="#84BE84" rx="3" ry="3" style="stroke:#038048;stroke-width:1.0;"/><text fill="#000000" font-family="sans-serif" font-size="14" lengthAdjust="spacing" textLength="115" x="729" y="501.412">getType(): string</text></g><!--class Product--><g id="elem_Product"><rect codeLine="26" fill="#F1F1F1" height="113.1875" id="Product" rx="2.5" ry="2.5" style="stroke:#181818;stroke-width:0.5;" width="158" x="256.5" y="957.94"/><ellipse cx="304.25" cy="973.94" fill="#ADD1B2" rx="11" ry="11" style="stroke:#181818;stroke-width:1.0;"/><path d="M307.2188,979.5806 Q306.6406,979.8775 306,980.0181 Q305.3594,980.1744 304.6563,980.1744 Q302.1563,980.1744 300.8281,978.5338 Q299.5156,976.8775 299.5156,973.7525 Q299.5156,970.6275 300.8281,968.9713 Q302.1563,967.315 304.6563,967.315 Q305.3594,967.315 306,967.4713 Q306.6563,967.6275 307.2188,967.9244 L307.2188,970.6431 Q306.5938,970.065 306,969.7994 Q305.4063,969.5181 304.7813,969.5181 Q303.4375,969.5181 302.75,970.5963 Q302.0625,971.6588 302.0625,973.7525 Q302.0625,975.8463 302.75,976.9244 Q303.4375,977.9869 304.7813,977.9869 Q305.4063,977.9869 306,977.7213 Q306.5938,977.44 307.2188,976.8619 L307.2188,979.5806 Z " fill="#000000"/><text fill="#000000" font-family="sans-serif" font-size="14" lengthAdjust="spacing" textLength="54" x="324.75" y="978.7867">Product</text><line style="stroke:#181818;stroke-width:0.5;" x1="257.5" x2="413.5" y1="989.94" y2="989.94"/><rect fill="none" height="6" style="stroke:#C82930;stroke-width:1.0;" width="6" x="264.5" y="1000.5884"/><text fill="#000000" font-family="sans-serif" font-size="14" lengthAdjust="spacing" textLength="101" x="276.5" y="1006.9351">_productID: int</text><rect fill="none" height="6" style="stroke:#C82930;stroke-width:1.0;" width="6" x="264.5" y="1016.8853"/><text fill="#000000" font-family="sans-serif" font-size="14" lengthAdjust="spacing" textLength="94" x="276.5" y="1023.232">_name: string</text><rect fill="none" height="6" style="stroke:#C82930;stroke-width:1.0;" width="6" x="264.5" y="1033.1822"/><text fill="#000000" font-family="sans-serif" font-size="14" lengthAdjust="spacing" textLength="132" x="276.5" y="1039.5289">_description: string</text><rect fill="none" height="6" style="stroke:#C82930;stroke-width:1.0;" width="6" x="264.5" y="1049.4791"/><text fill="#000000" font-family="sans-serif" font-size="14" lengthAdjust="spacing" textLength="79" x="276.5" y="1055.8257">_price: float</text><line style="stroke:#181818;stroke-width:0.5;" x1="257.5" x2="413.5" y1="1063.1275" y2="1063.1275"/></g><!--class Sale--><g id="elem_Sale"><rect codeLine="34" fill="#F1F1F1" height="113.1875" id="Sale" rx="2.5" ry="2.5" style="stroke:#181818;stroke-width:0.5;" width="177" x="247" y="593.86"/><ellipse cx="316.75" cy="609.86" fill="#ADD1B2" rx="11" ry="11" style="stroke:#181818;stroke-width:1.0;"/><path d="M319.7188,615.5006 Q319.1406,615.7975 318.5,615.9381 Q317.8594,616.0944 317.1563,616.0944 Q314.6563,616.0944 313.3281,614.4538 Q312.0156,612.7975 312.0156,609.6725 Q312.0156,606.5475 313.3281,604.8913 Q314.6563,603.235 317.1563,603.235 Q317.8594,603.235 318.5,603.3913 Q319.1563,603.5475 319.7188,603.8444 L319.7188,606.5631 Q319.0938,605.985 318.5,605.7194 Q317.9063,605.4381 317.2813,605.4381 Q315.9375,605.4381 315.25,606.5163 Q314.5625,607.5788 314.5625,609.6725 Q314.5625,611.7663 315.25,612.8444 Q315.9375,613.9069 317.2813,613.9069 Q317.9063,613.9069 318.5,613.6413 Q319.0938,613.36 319.7188,612.7819 L319.7188,615.5006 Z " fill="#000000"/><text fill="#000000" font-family="sans-serif" font-size="14" lengthAdjust="spacing" textLength="29" x="337.25" y="614.7067">Sale</text><line style="stroke:#181818;stroke-width:0.5;" x1="248" x2="423" y1="625.86" y2="625.86"/><rect fill="none" height="6" style="stroke:#C82930;stroke-width:1.0;" width="6" x="255" y="636.5084"/><text fill="#000000" font-family="sans-serif" font-size="14" lengthAdjust="spacing" textLength="75" x="267" y="642.8551">_saleID: int</text><rect fill="none" height="6" style="stroke:#C82930;stroke-width:1.0;" width="6" x="255" y="652.8053"/><text fill="#000000" font-family="sans-serif" font-size="14" lengthAdjust="spacing" textLength="80" x="267" y="659.152">_date: Date</text><rect fill="none" height="6" style="stroke:#C82930;stroke-width:1.0;" width="6" x="255" y="669.1022"/><text fill="#000000" font-family="sans-serif" font-size="14" lengthAdjust="spacing" textLength="129" x="267" y="675.4489">_totalAmount: float</text><rect fill="none" height="6" style="stroke:#C82930;stroke-width:1.0;" width="6" x="255" y="685.3991"/><text fill="#000000" font-family="sans-serif" font-size="14" lengthAdjust="spacing" textLength="151" x="267" y="691.7457">_saleItems: SaleItem[]</text><line style="stroke:#181818;stroke-width:0.5;" x1="248" x2="423" y1="699.0475" y2="699.0475"/></g><!--class SaleItem--><g id="elem_SaleItem"><rect codeLine="42" fill="#F1F1F1" height="96.8906" id="SaleItem" rx="2.5" ry="2.5" style="stroke:#181818;stroke-width:0.5;" width="150" x="260.5" y="784.05"/><ellipse cx="302.05" cy="800.05" fill="#ADD1B2" rx="11" ry="11" style="stroke:#181818;stroke-width:1.0;"/><path d="M305.0188,805.6906 Q304.4406,805.9875 303.8,806.1281 Q303.1594,806.2844 302.4563,806.2844 Q299.9563,806.2844 298.6281,804.6438 Q297.3156,802.9875 297.3156,799.8625 Q297.3156,796.7375 298.6281,795.0813 Q299.9563,793.425 302.4563,793.425 Q303.1594,793.425 303.8,793.5813 Q304.4563,793.7375 305.0188,794.0344 L305.0188,796.7531 Q304.3938,796.175 303.8,795.9094 Q303.2063,795.6281 302.5813,795.6281 Q301.2375,795.6281 300.55,796.7063 Q299.8625,797.7688 299.8625,799.8625 Q299.8625,801.9563 300.55,803.0344 Q301.2375,804.0969 302.5813,804.0969 Q303.2063,804.0969 303.8,803.8313 Q304.3938,803.55 305.0188,802.9719 L305.0188,805.6906 Z " fill="#000000"/><text fill="#000000" font-family="sans-serif" font-size="14" lengthAdjust="spacing" textLength="59" x="321.95" y="804.8967">SaleItem</text><line style="stroke:#181818;stroke-width:0.5;" x1="261.5" x2="409.5" y1="816.05" y2="816.05"/><rect fill="none" height="6" style="stroke:#C82930;stroke-width:1.0;" width="6" x="268.5" y="826.6984"/><text fill="#000000" font-family="sans-serif" font-size="14" lengthAdjust="spacing" textLength="124" x="280.5" y="833.0451">_product: Product</text><rect fill="none" height="6" style="stroke:#C82930;stroke-width:1.0;" width="6" x="268.5" y="842.9953"/><text fill="#000000" font-family="sans-serif" font-size="14" lengthAdjust="spacing" textLength="88" x="280.5" y="849.342">_quantity: int</text><rect fill="none" height="6" style="stroke:#C82930;stroke-width:1.0;" width="6" x="268.5" y="859.2922"/><text fill="#000000" font-family="sans-serif" font-size="14" lengthAdjust="spacing" textLength="101" x="280.5" y="865.6389">_subtotal: float</text><line style="stroke:#181818;stroke-width:0.5;" x1="261.5" x2="409.5" y1="872.9406" y2="872.9406"/></g><!--class SalesReport--><g id="elem_SalesReport"><rect codeLine="49" fill="#F1F1F1" height="96.8906" id="SalesReport" rx="2.5" ry="2.5" style="stroke:#181818;stroke-width:0.5;" width="151" x="63" y="419.97"/><ellipse cx="93.75" cy="435.97" fill="#ADD1B2" rx="11" ry="11" style="stroke:#181818;stroke-width:1.0;"/><path d="M96.7188,441.6106 Q96.1406,441.9075 95.5,442.0481 Q94.8594,442.2044 94.1563,442.2044 Q91.6563,442.2044 90.3281,440.5638 Q89.0156,438.9075 89.0156,435.7825 Q89.0156,432.6575 90.3281,431.0013 Q91.6563,429.345 94.1563,429.345 Q94.8594,429.345 95.5,429.5013 Q96.1563,429.6575 96.7188,429.9544 L96.7188,432.6731 Q96.0938,432.095 95.5,431.8294 Q94.9063,431.5481 94.2813,431.5481 Q92.9375,431.5481 92.25,432.6263 Q91.5625,433.6888 91.5625,435.7825 Q91.5625,437.8763 92.25,438.9544 Q92.9375,440.0169 94.2813,440.0169 Q94.9063,440.0169 95.5,439.7513 Q96.0938,439.47 96.7188,438.8919 L96.7188,441.6106 Z " fill="#000000"/><text fill="#000000" font-family="sans-serif" font-size="14" lengthAdjust="spacing" textLength="84" x="111.25" y="440.8167">SalesReport</text><line style="stroke:#181818;stroke-width:0.5;" x1="64" x2="213" y1="451.97" y2="451.97"/><rect fill="none" height="6" style="stroke:#C82930;stroke-width:1.0;" width="6" x="71" y="462.6184"/><text fill="#000000" font-family="sans-serif" font-size="14" lengthAdjust="spacing" textLength="89" x="83" y="468.9651">_reportID: int</text><rect fill="none" height="6" style="stroke:#C82930;stroke-width:1.0;" width="6" x="71" y="478.9153"/><text fill="#000000" font-family="sans-serif" font-size="14" lengthAdjust="spacing" textLength="125" x="83" y="485.262">_dateRange: Date</text><rect fill="none" height="6" style="stroke:#C82930;stroke-width:1.0;" width="6" x="71" y="495.2122"/><text fill="#000000" font-family="sans-serif" font-size="14" lengthAdjust="spacing" textLength="91" x="83" y="501.5589">_sales: Sale[]</text><line style="stroke:#181818;stroke-width:0.5;" x1="64" x2="213" y1="508.8606" y2="508.8606"/></g><!--class DataManager--><g id="elem_DataManager"><rect codeLine="56" fill="#F1F1F1" height="96.8906" id="DataManager" rx="2.5" ry="2.5" style="stroke:#181818;stroke-width:0.5;" width="124" x="280.5" y="213.49"/><ellipse cx="295.5" cy="229.49" fill="#ADD1B2" rx="11" ry="11" style="stroke:#181818;stroke-width:1.0;"/><path d="M298.4688,235.1306 Q297.8906,235.4275 297.25,235.5681 Q296.6094,235.7244 295.9063,235.7244 Q293.4063,235.7244 292.0781,234.0838 Q290.7656,232.4275 290.7656,229.3025 Q290.7656,226.1775 292.0781,224.5213 Q293.4063,222.865 295.9063,222.865 Q296.6094,222.865 297.25,223.0213 Q297.9063,223.1775 298.4688,223.4744 L298.4688,226.1931 Q297.8438,225.615 297.25,225.3494 Q296.6563,225.0681 296.0313,225.0681 Q294.6875,225.0681 294,226.1463 Q293.3125,227.2088 293.3125,229.3025 Q293.3125,231.3963 294,232.4744 Q294.6875,233.5369 296.0313,233.5369 Q296.6563,233.5369 297.25,233.2713 Q297.8438,232.99 298.4688,232.4119 L298.4688,235.1306 Z " fill="#000000"/><text fill="#000000" font-family="sans-serif" font-size="14" lengthAdjust="spacing" textLength="92" x="309.5" y="234.3367">DataManager</text><line style="stroke:#181818;stroke-width:0.5;" x1="281.5" x2="403.5" y1="245.49" y2="245.49"/><line style="stroke:#181818;stroke-width:0.5;" x1="281.5" x2="403.5" y1="253.49" y2="253.49"/><ellipse cx="291.5" cy="267.1384" fill="#84BE84" rx="3" ry="3" style="stroke:#038048;stroke-width:1.0;"/><text fill="#000000" font-family="sans-serif" font-size="14" font-style="italic" lengthAdjust="spacing" textLength="91" x="300.5" y="270.4851">create(): void</text><ellipse cx="291.5" cy="283.4353" fill="#84BE84" rx="3" ry="3" style="stroke:#038048;stroke-width:1.0;"/><text fill="#000000" font-family="sans-serif" font-size="14" font-style="italic" lengthAdjust="spacing" textLength="73" x="300.5" y="286.782">edit(): void</text><ellipse cx="291.5" cy="299.7322" fill="#84BE84" rx="3" ry="3" style="stroke:#038048;stroke-width:1.0;"/><text fill="#000000" font-family="sans-serif" font-size="14" font-style="italic" lengthAdjust="spacing" textLength="91" x="300.5" y="303.0789">delete(): void</text></g><!--class SalesDataManager--><g id="elem_SalesDataManager"><rect codeLine="63" fill="#F1F1F1" height="96.8906" id="SalesDataManager" rx="2.5" ry="2.5" style="stroke:#181818;stroke-width:0.5;" width="161" x="255" y="419.97"/><ellipse cx="270" cy="435.97" fill="#ADD1B2" rx="11" ry="11" style="stroke:#181818;stroke-width:1.0;"/><path d="M272.9688,441.6106 Q272.3906,441.9075 271.75,442.0481 Q271.1094,442.2044 270.4063,442.2044 Q267.9063,442.2044 266.5781,440.5638 Q265.2656,438.9075 265.2656,435.7825 Q265.2656,432.6575 266.5781,431.0013 Q267.9063,429.345 270.4063,429.345 Q271.1094,429.345 271.75,429.5013 Q272.4063,429.6575 272.9688,429.9544 L272.9688,432.6731 Q272.3438,432.095 271.75,431.8294 Q271.1563,431.5481 270.5313,431.5481 Q269.1875,431.5481 268.5,432.6263 Q267.8125,433.6888 267.8125,435.7825 Q267.8125,437.8763 268.5,438.9544 Q269.1875,440.0169 270.5313,440.0169 Q271.1563,440.0169 271.75,439.7513 Q272.3438,439.47 272.9688,438.8919 L272.9688,441.6106 Z " fill="#000000"/><text fill="#000000" font-family="sans-serif" font-size="14" lengthAdjust="spacing" textLength="129" x="284" y="440.8167">SalesDataManager</text><line style="stroke:#181818;stroke-width:0.5;" x1="256" x2="415" y1="451.97" y2="451.97"/><line style="stroke:#181818;stroke-width:0.5;" x1="256" x2="415" y1="459.97" y2="459.97"/><ellipse cx="266" cy="473.6184" fill="#84BE84" rx="3" ry="3" style="stroke:#038048;stroke-width:1.0;"/><text fill="#000000" font-family="sans-serif" font-size="14" lengthAdjust="spacing" textLength="120" x="275" y="476.9651">createSale(): void</text><ellipse cx="266" cy="489.9153" fill="#84BE84" rx="3" ry="3" style="stroke:#038048;stroke-width:1.0;"/><text fill="#000000" font-family="sans-serif" font-size="14" lengthAdjust="spacing" textLength="102" x="275" y="493.262">editSale(): void</text><ellipse cx="266" cy="506.2122" fill="#84BE84" rx="3" ry="3" style="stroke:#038048;stroke-width:1.0;"/><text fill="#000000" font-family="sans-serif" font-size="14" lengthAdjust="spacing" textLength="120" x="275" y="509.5589">deleteSale(): void</text></g><!--class ReportGenerator--><g id="elem_ReportGenerator"><rect codeLine="70" fill="#F1F1F1" height="80.5938" id="ReportGenerator" rx="2.5" ry="2.5" style="stroke:#181818;stroke-width:0.5;" width="239" x="7" y="221.64"/><ellipse cx="63.75" cy="237.64" fill="#ADD1B2" rx="11" ry="11" style="stroke:#181818;stroke-width:1.0;"/><path d="M66.7188,243.2806 Q66.1406,243.5775 65.5,243.7181 Q64.8594,243.8744 64.1563,243.8744 Q61.6563,243.8744 60.3281,242.2338 Q59.0156,240.5775 59.0156,237.4525 Q59.0156,234.3275 60.3281,232.6713 Q61.6563,231.015 64.1563,231.015 Q64.8594,231.015 65.5,231.1713 Q66.1563,231.3275 66.7188,231.6244 L66.7188,234.3431 Q66.0938,233.765 65.5,233.4994 Q64.9063,233.2181 64.2813,233.2181 Q62.9375,233.2181 62.25,234.2963 Q61.5625,235.3588 61.5625,237.4525 Q61.5625,239.5463 62.25,240.6244 Q62.9375,241.6869 64.2813,241.6869 Q64.9063,241.6869 65.5,241.4213 Q66.0938,241.14 66.7188,240.5619 L66.7188,243.2806 Z " fill="#000000"/><text fill="#000000" font-family="sans-serif" font-size="14" lengthAdjust="spacing" textLength="117" x="84.25" y="242.4867">ReportGenerator</text><line style="stroke:#181818;stroke-width:0.5;" x1="8" x2="245" y1="253.64" y2="253.64"/><line style="stroke:#181818;stroke-width:0.5;" x1="8" x2="245" y1="261.64" y2="261.64"/><ellipse cx="18" cy="275.2884" fill="#84BE84" rx="3" ry="3" style="stroke:#038048;stroke-width:1.0;"/><text fill="#000000" font-family="sans-serif" font-size="14" lengthAdjust="spacing" textLength="213" x="27" y="278.6351">generateReport(): SalesReport</text><ellipse cx="18" cy="291.5853" fill="#84BE84" rx="3" ry="3" style="stroke:#038048;stroke-width:1.0;"/><text fill="#000000" font-family="sans-serif" font-size="14" lengthAdjust="spacing" textLength="172" x="27" y="294.932">saveReportToCSV(): void</text></g><!--class AuthenticationManager--><g id="elem_AuthenticationManager"><rect codeLine="76" fill="#F1F1F1" height="96.8906" id="AuthenticationManager" rx="2.5" ry="2.5" style="stroke:#181818;stroke-width:0.5;" width="192" x="626.5" y="7"/><ellipse cx="641.5" cy="23" fill="#ADD1B2" rx="11" ry="11" style="stroke:#181818;stroke-width:1.0;"/><path d="M644.4688,28.6406 Q643.8906,28.9375 643.25,29.0781 Q642.6094,29.2344 641.9063,29.2344 Q639.4063,29.2344 638.0781,27.5938 Q636.7656,25.9375 636.7656,22.8125 Q636.7656,19.6875 638.0781,18.0313 Q639.4063,16.375 641.9063,16.375 Q642.6094,16.375 643.25,16.5313 Q643.9063,16.6875 644.4688,16.9844 L644.4688,19.7031 Q643.8438,19.125 643.25,18.8594 Q642.6563,18.5781 642.0313,18.5781 Q640.6875,18.5781 640,19.6563 Q639.3125,20.7188 639.3125,22.8125 Q639.3125,24.9063 640,25.9844 Q640.6875,27.0469 642.0313,27.0469 Q642.6563,27.0469 643.25,26.7813 Q643.8438,26.5 644.4688,25.9219 L644.4688,28.6406 Z " fill="#000000"/><text fill="#000000" font-family="sans-serif" font-size="14" lengthAdjust="spacing" textLength="160" x="655.5" y="27.8467">AuthenticationManager</text><line style="stroke:#181818;stroke-width:0.5;" x1="627.5" x2="817.5" y1="39" y2="39"/><line style="stroke:#181818;stroke-width:0.5;" x1="627.5" x2="817.5" y1="47" y2="47"/><ellipse cx="637.5" cy="60.6484" fill="#84BE84" rx="3" ry="3" style="stroke:#038048;stroke-width:1.0;"/><text fill="#000000" font-family="sans-serif" font-size="14" lengthAdjust="spacing" textLength="80" x="646.5" y="63.9951">login(): void</text><ellipse cx="637.5" cy="76.9453" fill="#84BE84" rx="3" ry="3" style="stroke:#038048;stroke-width:1.0;"/><text fill="#000000" font-family="sans-serif" font-size="14" lengthAdjust="spacing" textLength="91" x="646.5" y="80.292">logout(): void</text><ellipse cx="637.5" cy="93.2422" fill="#84BE84" rx="3" ry="3" style="stroke:#038048;stroke-width:1.0;"/><text fill="#000000" font-family="sans-serif" font-size="14" lengthAdjust="spacing" textLength="166" x="646.5" y="96.5889">changePassword(): void</text></g><!--reverse link User to Salesperson--><g id="link_User_Salesperson"><path d="M646.6,359.93 C627.84,383.91 608.78,408.28 593.55,427.73 " fill="none" id="User-backto-Salesperson" style="stroke:#181818;stroke-width:1.0;"/><polygon fill="none" points="641.66,355.9,659.49,344.46,652.68,364.52,641.66,355.9" style="stroke:#181818;stroke-width:1.0;"/></g><!--reverse link User to Manager--><g id="link_User_Manager"><path d="M763.97,362.7 C773.56,385.78 783.23,409.02 791,427.73 " fill="none" id="User-backto-Manager" style="stroke:#181818;stroke-width:1.0;"/><polygon fill="none" points="757.19,365.61,755.97,344.46,770.11,360.24,757.19,365.61" style="stroke:#181818;stroke-width:1.0;"/></g><!--reverse link DataManager to SalesDataManager--><g id="link_DataManager_SalesDataManager"><path d="M340.15,331.58 C339.16,360.54 338.03,393.55 337.13,419.78 " fill="none" id="DataManager-backto-SalesDataManager" style="stroke:#181818;stroke-width:1.0;"/><polygon fill="none" points="333.18,331.63,340.86,311.88,347.17,332.1,333.18,331.63" style="stroke:#181818;stroke-width:1.0;"/></g><!--link Salesperson to Sale--><g id="link_Salesperson_Sale"><path codeLine="83" d="M512.4,509.15 C482.54,532.84 444.05,563.36 410.61,589.89 " fill="none" id="Salesperson-to-Sale" style="stroke:#181818;stroke-width:1.0;"/><polygon fill="#181818" points="407.13,593.44,416.6633,590.9667,411.0427,590.327,411.6824,584.7064,407.13,593.44" style="stroke:#181818;stroke-width:1.0;"/><polygon fill="#000000" points="463.5827,558.5336,472.4955,555.2152,468.8428,550.6101,463.5827,558.5336" style="stroke:#000000;stroke-width:1.0;"/><text fill="#000000" font-family="sans-serif" font-size="13" lengthAdjust="spacing" textLength="43" x="476.5" y="559.9269">makes</text></g><!--link Sale to SaleItem--><g id="link_Sale_SaleItem"><path codeLine="84" d="M335.5,707.44 C335.5,729.89 335.5,755.67 335.5,777.88 " fill="none" id="Sale-to-SaleItem" style="stroke:#181818;stroke-width:1.0;"/><polygon fill="#181818" points="335.5,782.75,339.5,773.75,335.5,777.75,331.5,773.75,335.5,782.75" style="stroke:#181818;stroke-width:1.0;"/><polygon fill="#000000" points="340.5,750.6164,343.4389,741.5713,337.5611,741.5713,340.5,750.6164" style="stroke:#000000;stroke-width:1.0;"/><text fill="#000000" font-family="sans-serif" font-size="13" lengthAdjust="spacing" textLength="54" x="349.5" y="750.1169">contains</text></g><!--link SaleItem to Product--><g id="link_SaleItem_Product"><path codeLine="85" d="M335.5,881.27 C335.5,902.88 335.5,928.69 335.5,951.75 " fill="none" id="SaleItem-to-Product" style="stroke:#181818;stroke-width:1.0;"/><polygon fill="#181818" points="335.5,956.55,339.5,947.55,335.5,951.55,331.5,947.55,335.5,956.55" style="stroke:#181818;stroke-width:1.0;"/><polygon fill="#000000" points="340.5,924.5064,343.4389,915.4613,337.5611,915.4613,340.5,924.5064" style="stroke:#000000;stroke-width:1.0;"/><text fill="#000000" font-family="sans-serif" font-size="13" lengthAdjust="spacing" textLength="28" x="349.5" y="924.0069">sells</text></g><!--link SalesDataManager to Sale--><g id="link_SalesDataManager_Sale"><path codeLine="86" d="M335.5,517.19 C335.5,538.8 335.5,564.61 335.5,587.67 " fill="none" id="SalesDataManager-to-Sale" style="stroke:#181818;stroke-width:1.0;"/><polygon fill="#181818" points="335.5,592.47,339.5,583.47,335.5,587.47,331.5,583.47,335.5,592.47" style="stroke:#181818;stroke-width:1.0;"/><polygon fill="#000000" points="340.5,560.4264,343.4389,551.3813,337.5611,551.3813,340.5,560.4264" style="stroke:#000000;stroke-width:1.0;"/><text fill="#000000" font-family="sans-serif" font-size="13" lengthAdjust="spacing" textLength="60" x="349.5" y="559.9269">manages</text></g><!--link ReportGenerator to SalesReport--><g id="link_ReportGenerator_SalesReport"><path codeLine="87" d="M128.81,302.36 C130.67,333.96 133.29,378.62 135.34,413.52 " fill="none" id="ReportGenerator-to-SalesReport" style="stroke:#181818;stroke-width:1.0;"/><polygon fill="#181818" points="135.69,418.48,139.1422,409.256,135.3897,413.489,131.1567,409.7365,135.69,418.48" style="stroke:#181818;stroke-width:1.0;"/><polygon fill="#000000" points="139.7932,386.5278,142.1967,377.3259,136.3289,377.6706,139.7932,386.5278" style="stroke:#000000;stroke-width:1.0;"/><text fill="#000000" font-family="sans-serif" font-size="13" lengthAdjust="spacing" textLength="65" x="148.5" y="386.0369">generates</text></g><!--link SalesReport to Sale--><g id="link_SalesReport_Sale"><path codeLine="88" d="M190.78,517.19 C215.02,539.35 244.1,565.92 269.81,589.42 " fill="none" id="SalesReport-to-Sale" style="stroke:#181818;stroke-width:1.0;"/><polygon fill="#181818" points="273.23,592.47,269.2716,583.4516,269.5342,589.1024,263.8834,589.3649,273.23,592.47" style="stroke:#181818;stroke-width:1.0;"/><polygon fill="#000000" points="246.1907,558.7996,241.4968,550.5281,237.5314,554.8668,246.1907,558.7996" style="stroke:#000000;stroke-width:1.0;"/><text fill="#000000" font-family="sans-serif" font-size="13" lengthAdjust="spacing" textLength="52" x="251.5" y="559.9269">includes</text></g><!--link AuthenticationManager to User--><g id="link_AuthenticationManager_User"><path codeLine="89" d="M722.5,104.39 C722.5,125.38 722.5,150.66 722.5,174.72 " fill="none" id="AuthenticationManager-to-User" style="stroke:#181818;stroke-width:1.0;"/><polygon fill="#181818" points="722.5,179.48,726.5,170.48,722.5,174.48,718.5,170.48,722.5,179.48" style="stroke:#181818;stroke-width:1.0;"/><polygon fill="#000000" points="727.5,147.4664,730.4389,138.4213,724.5611,138.4213,727.5,147.4664" style="stroke:#000000;stroke-width:1.0;"/><text fill="#000000" font-family="sans-serif" font-size="13" lengthAdjust="spacing" textLength="88" x="736.5" y="146.9669">authenticates</text></g><!--SRC=[ZLJRQjmm47ttLypR9gJx0uO6bWPAeIqXIVjIIfdOMg-eBBcId3Oi-VTA8sajQTtBYx7Ed9apPtJPmExHM8sTXKwWCR1N6b08iCyJCw3sC1kcJHE2dzm_71k0xJU98sl1fN8v4E08zcCDJYxhfz9z1bxv8XTv-YlmkILI9rxwp86HmiLbNiw1xwDq4JXYDFP2d0Vd9uk_DCq6xb4mCpbxIaRtN1wOvjOnOA_LI8QZzvpCVbac-s8UVbwfEho6JKRVn3RNMlY04WTNv9_oYVWVqf7wDzbRhVevxNbKI5WeEeNLkvlMTMNNjxndfjDyibp9SjSrxnnpBnJQPTA56051oRZVNAP7wv9lt3UuKnR5RbIpjAdaASkoqRHKo_z- -Rg8-VMP8865lJQv9l37ZD9o-xpqOkP7qZypO-xOfBGzaqXuKD6qgCtTeHnoXzvAj94ik1Yc7SVYWaQjd72iJdkdcIljj_n9yRuAifxRFuHw9bYMjtZDnTOFQiR8Xv4dfeDRTnxRzVoiB-gpnaA31KfDXfc_PP9fj4eNWwfZnt0hQCb2q1VBziuJ33x5u8DwS_-vbDlDzi3SGUdGd_nYC55qdK7IGWrSvgOSeEPyIwwwWpyWj_45hAqAgcaEV39D_YPjjzVXLhKmudVtTbzJ-8JJuM-XKz8YbobCgAUas-ykCXCYXOiTB1Gyv5drV1CfNOGMqh1FDMCaAyTb9-QU6EkZyrnwyLh0XK09lm40]--></g></svg>